# xmcd
#
# Track frame offsets:
#	150
#	25357
#	52106
#	69838
#	93780
#	115325
#	141938
#	166442
#	193210
#	215197
#	242256
#	264645
#
# Disc length: 3826
#
# Revision: 1
# Processed by: cddbd v1.5.1PL0 Copyright (c) Steve Scherf et al.
# Submitted via: CDex 1.50Beta7
# Normalized: r0:TDELIM( - )
#
DISCID=b10ef00c
DTITLE=Various Artist - NAV January 2001 Sampler
DYEAR=2001
DGENRE=New Age
TTITLE0=Paul Schwartz - Veni Redemptor Gentium
TTITLE1=Ray Spiegel Ensemble - Ashes on the Beach at Puri
TTITLE2=Makana - Flood
TTITLE3=Makana - Don't You Want
TTITLE4=Shao Rong - Bamboo Dance
TTITLE5=Eri Sugal - Horizon
TTITLE6=Kevin Asbjörnson - Turning Point
TTITLE7=Music Gate - The Dance of Cherry Blossoms
TTITLE8=Turtle Island String Quartet - Bowing-Bowing
TTITLE9=Delerium - Innocente
TTITLE10=Paul Winter and the Earth Band - Yabu
TTITLE11=Christina Tourin - Harbor Cove
EXTD=YEAR: 2001
EXTT0=
EXTT1=
EXTT2=
EXTT3=
EXTT4=
EXTT5=
EXTT6=
EXTT7=
EXTT8=
EXTT9=
EXTT10=
EXTT11=
PLAYORDER=
